<mxfile host="app.diagrams.net" modified="2024-05-12T09:59:49.745Z" agent="Mozilla/5.0 (Windows NT 10.0; Win64; x64) AppleWebKit/537.36 (KHTML, like Gecko) Chrome/123.0.0.0 Safari/537.36 OPR/109.0.0.0" etag="K50p2-HzhBDTalPpHT9W" version="24.4.0" type="device">
  <diagram id="C5RBs43oDa-KdzZeNtuy" name="Page-1">
    <mxGraphModel dx="2280" dy="864" grid="1" gridSize="10" guides="1" tooltips="1" connect="1" arrows="1" fold="1" page="1" pageScale="1" pageWidth="827" pageHeight="1169" math="0" shadow="0">
      <root>
        <mxCell id="WIyWlLk6GJQsqaUBKTNV-0" />
        <mxCell id="WIyWlLk6GJQsqaUBKTNV-1" parent="WIyWlLk6GJQsqaUBKTNV-0" />
        <mxCell id="WIyWlLk6GJQsqaUBKTNV-2" value="" style="rounded=0;html=1;jettySize=auto;orthogonalLoop=1;fontSize=11;endArrow=block;endFill=0;endSize=8;strokeWidth=1;shadow=0;labelBackgroundColor=none;edgeStyle=orthogonalEdgeStyle;" parent="WIyWlLk6GJQsqaUBKTNV-1" source="WIyWlLk6GJQsqaUBKTNV-3" edge="1">
          <mxGeometry relative="1" as="geometry">
            <mxPoint x="490" y="390" as="targetPoint" />
          </mxGeometry>
        </mxCell>
        <mxCell id="qjOrXBp8RQyQjDcFo7r0-6" style="edgeStyle=orthogonalEdgeStyle;rounded=0;orthogonalLoop=1;jettySize=auto;html=1;entryX=0.5;entryY=1;entryDx=0;entryDy=0;" edge="1" parent="WIyWlLk6GJQsqaUBKTNV-1" source="WIyWlLk6GJQsqaUBKTNV-3" target="qjOrXBp8RQyQjDcFo7r0-28">
          <mxGeometry relative="1" as="geometry">
            <mxPoint x="380" y="320" as="targetPoint" />
          </mxGeometry>
        </mxCell>
        <mxCell id="qjOrXBp8RQyQjDcFo7r0-14" style="edgeStyle=orthogonalEdgeStyle;rounded=0;orthogonalLoop=1;jettySize=auto;html=1;entryX=0.5;entryY=0;entryDx=0;entryDy=0;exitX=0.25;exitY=1;exitDx=0;exitDy=0;" edge="1" parent="WIyWlLk6GJQsqaUBKTNV-1" source="WIyWlLk6GJQsqaUBKTNV-3" target="qjOrXBp8RQyQjDcFo7r0-23">
          <mxGeometry relative="1" as="geometry">
            <mxPoint x="380" y="460" as="targetPoint" />
          </mxGeometry>
        </mxCell>
        <mxCell id="WIyWlLk6GJQsqaUBKTNV-3" value="Idle" style="rounded=1;whiteSpace=wrap;html=1;fontSize=12;glass=0;strokeWidth=1;shadow=0;fillColor=#dae8fc;strokeColor=#6c8ebf;" parent="WIyWlLk6GJQsqaUBKTNV-1" vertex="1">
          <mxGeometry x="330" y="365" width="120" height="40" as="geometry" />
        </mxCell>
        <mxCell id="qjOrXBp8RQyQjDcFo7r0-35" style="edgeStyle=orthogonalEdgeStyle;rounded=0;orthogonalLoop=1;jettySize=auto;html=1;entryX=0.5;entryY=0;entryDx=0;entryDy=0;" edge="1" parent="WIyWlLk6GJQsqaUBKTNV-1" source="WIyWlLk6GJQsqaUBKTNV-7" target="qjOrXBp8RQyQjDcFo7r0-34">
          <mxGeometry relative="1" as="geometry" />
        </mxCell>
        <mxCell id="qjOrXBp8RQyQjDcFo7r0-51" style="edgeStyle=orthogonalEdgeStyle;rounded=0;orthogonalLoop=1;jettySize=auto;html=1;entryX=0;entryY=0.5;entryDx=0;entryDy=0;" edge="1" parent="WIyWlLk6GJQsqaUBKTNV-1" source="WIyWlLk6GJQsqaUBKTNV-7" target="qjOrXBp8RQyQjDcFo7r0-50">
          <mxGeometry relative="1" as="geometry" />
        </mxCell>
        <mxCell id="WIyWlLk6GJQsqaUBKTNV-7" value="Inhale" style="rounded=1;whiteSpace=wrap;html=1;fontSize=12;glass=0;strokeWidth=1;shadow=0;fillColor=#dae8fc;strokeColor=#6c8ebf;" parent="WIyWlLk6GJQsqaUBKTNV-1" vertex="1">
          <mxGeometry x="650" y="367.5" width="120" height="40" as="geometry" />
        </mxCell>
        <mxCell id="qjOrXBp8RQyQjDcFo7r0-38" style="edgeStyle=orthogonalEdgeStyle;rounded=0;orthogonalLoop=1;jettySize=auto;html=1;entryX=0.5;entryY=1;entryDx=0;entryDy=0;" edge="1" parent="WIyWlLk6GJQsqaUBKTNV-1" source="qjOrXBp8RQyQjDcFo7r0-8" target="qjOrXBp8RQyQjDcFo7r0-37">
          <mxGeometry relative="1" as="geometry" />
        </mxCell>
        <mxCell id="qjOrXBp8RQyQjDcFo7r0-68" style="edgeStyle=orthogonalEdgeStyle;rounded=0;orthogonalLoop=1;jettySize=auto;html=1;entryX=0;entryY=0.5;entryDx=0;entryDy=0;" edge="1" parent="WIyWlLk6GJQsqaUBKTNV-1" source="qjOrXBp8RQyQjDcFo7r0-8" target="qjOrXBp8RQyQjDcFo7r0-69">
          <mxGeometry relative="1" as="geometry">
            <mxPoint x="570" y="190" as="targetPoint" />
          </mxGeometry>
        </mxCell>
        <mxCell id="qjOrXBp8RQyQjDcFo7r0-8" value="Airborn" style="rounded=1;whiteSpace=wrap;html=1;fontSize=12;glass=0;strokeWidth=1;shadow=0;fillColor=#dae8fc;strokeColor=#6c8ebf;" vertex="1" parent="WIyWlLk6GJQsqaUBKTNV-1">
          <mxGeometry x="330" y="170" width="120" height="40" as="geometry" />
        </mxCell>
        <mxCell id="qjOrXBp8RQyQjDcFo7r0-55" style="edgeStyle=orthogonalEdgeStyle;rounded=0;orthogonalLoop=1;jettySize=auto;html=1;entryX=0.5;entryY=0;entryDx=0;entryDy=0;" edge="1" parent="WIyWlLk6GJQsqaUBKTNV-1" source="qjOrXBp8RQyQjDcFo7r0-9" target="qjOrXBp8RQyQjDcFo7r0-54">
          <mxGeometry relative="1" as="geometry" />
        </mxCell>
        <mxCell id="qjOrXBp8RQyQjDcFo7r0-64" style="edgeStyle=orthogonalEdgeStyle;rounded=0;orthogonalLoop=1;jettySize=auto;html=1;entryX=0;entryY=0.5;entryDx=0;entryDy=0;" edge="1" parent="WIyWlLk6GJQsqaUBKTNV-1" source="qjOrXBp8RQyQjDcFo7r0-9" target="qjOrXBp8RQyQjDcFo7r0-63">
          <mxGeometry relative="1" as="geometry" />
        </mxCell>
        <mxCell id="qjOrXBp8RQyQjDcFo7r0-9" value="Mouthfull" style="rounded=1;whiteSpace=wrap;html=1;fontSize=12;glass=0;strokeWidth=1;shadow=0;fillColor=#dae8fc;strokeColor=#6c8ebf;" vertex="1" parent="WIyWlLk6GJQsqaUBKTNV-1">
          <mxGeometry x="1121" y="367.5" width="120" height="40" as="geometry" />
        </mxCell>
        <mxCell id="qjOrXBp8RQyQjDcFo7r0-12" style="edgeStyle=orthogonalEdgeStyle;rounded=0;orthogonalLoop=1;jettySize=auto;html=1;" edge="1" parent="WIyWlLk6GJQsqaUBKTNV-1" source="qjOrXBp8RQyQjDcFo7r0-10" target="qjOrXBp8RQyQjDcFo7r0-25">
          <mxGeometry relative="1" as="geometry">
            <mxPoint x="220" y="430" as="targetPoint" />
          </mxGeometry>
        </mxCell>
        <mxCell id="qjOrXBp8RQyQjDcFo7r0-10" value="Crounch" style="rounded=1;whiteSpace=wrap;html=1;fontSize=12;glass=0;strokeWidth=1;shadow=0;fillColor=#dae8fc;strokeColor=#6c8ebf;" vertex="1" parent="WIyWlLk6GJQsqaUBKTNV-1">
          <mxGeometry x="60" y="510" width="120" height="40" as="geometry" />
        </mxCell>
        <mxCell id="qjOrXBp8RQyQjDcFo7r0-13" style="edgeStyle=orthogonalEdgeStyle;rounded=0;orthogonalLoop=1;jettySize=auto;html=1;entryX=0;entryY=1;entryDx=0;entryDy=0;exitX=1;exitY=0.5;exitDx=0;exitDy=0;" edge="1" parent="WIyWlLk6GJQsqaUBKTNV-1" source="qjOrXBp8RQyQjDcFo7r0-25" target="WIyWlLk6GJQsqaUBKTNV-3">
          <mxGeometry relative="1" as="geometry">
            <mxPoint x="270" y="390" as="sourcePoint" />
          </mxGeometry>
        </mxCell>
        <mxCell id="qjOrXBp8RQyQjDcFo7r0-16" style="edgeStyle=orthogonalEdgeStyle;rounded=0;orthogonalLoop=1;jettySize=auto;html=1;entryX=1;entryY=0.5;entryDx=0;entryDy=0;exitX=0;exitY=0.5;exitDx=0;exitDy=0;" edge="1" parent="WIyWlLk6GJQsqaUBKTNV-1" source="qjOrXBp8RQyQjDcFo7r0-23" target="qjOrXBp8RQyQjDcFo7r0-10">
          <mxGeometry relative="1" as="geometry">
            <mxPoint x="330" y="500" as="sourcePoint" />
          </mxGeometry>
        </mxCell>
        <mxCell id="qjOrXBp8RQyQjDcFo7r0-18" value="Walk" style="rounded=1;whiteSpace=wrap;html=1;fontSize=12;glass=0;strokeWidth=1;shadow=0;fillColor=#dae8fc;strokeColor=#6c8ebf;" vertex="1" parent="WIyWlLk6GJQsqaUBKTNV-1">
          <mxGeometry x="-180" y="220" width="120" height="40" as="geometry" />
        </mxCell>
        <mxCell id="qjOrXBp8RQyQjDcFo7r0-20" value="LÃ©gende" style="swimlane;fontStyle=0;childLayout=stackLayout;horizontal=1;startSize=30;horizontalStack=0;resizeParent=1;resizeParentMax=0;resizeLast=0;collapsible=1;marginBottom=0;whiteSpace=wrap;html=1;strokeColor=none;" vertex="1" parent="WIyWlLk6GJQsqaUBKTNV-1">
          <mxGeometry x="30" y="1050" width="140" height="90" as="geometry" />
        </mxCell>
        <mxCell id="qjOrXBp8RQyQjDcFo7r0-21" value="&lt;font color=&quot;#97d077&quot;&gt;pressed&amp;nbsp;&lt;/font&gt;:&amp;nbsp; &amp;nbsp; &amp;nbsp; &amp;nbsp; &amp;nbsp; &amp;nbsp;pressed" style="text;strokeColor=none;fillColor=none;align=left;verticalAlign=middle;spacingLeft=4;spacingRight=4;overflow=hidden;points=[[0,0.5],[1,0.5]];portConstraint=eastwest;rotatable=0;whiteSpace=wrap;html=1;" vertex="1" parent="qjOrXBp8RQyQjDcFo7r0-20">
          <mxGeometry y="30" width="140" height="30" as="geometry" />
        </mxCell>
        <mxCell id="qjOrXBp8RQyQjDcFo7r0-22" value="&lt;font color=&quot;#7ea6e0&quot;&gt;square&amp;nbsp;&lt;/font&gt;:&amp;nbsp; &amp;nbsp; &amp;nbsp; &amp;nbsp; &amp;nbsp; &amp;nbsp; &amp;nbsp; &amp;nbsp; &amp;nbsp;state" style="text;strokeColor=none;fillColor=none;align=left;verticalAlign=middle;spacingLeft=4;spacingRight=4;overflow=hidden;points=[[0,0.5],[1,0.5]];portConstraint=eastwest;rotatable=0;whiteSpace=wrap;html=1;" vertex="1" parent="qjOrXBp8RQyQjDcFo7r0-20">
          <mxGeometry y="60" width="140" height="30" as="geometry" />
        </mxCell>
        <mxCell id="qjOrXBp8RQyQjDcFo7r0-23" value="DownKey" style="shape=hexagon;perimeter=hexagonPerimeter2;whiteSpace=wrap;html=1;fixedSize=1;fillColor=#d5e8d4;strokeColor=#82b366;" vertex="1" parent="WIyWlLk6GJQsqaUBKTNV-1">
          <mxGeometry x="320" y="512.5" width="80" height="35" as="geometry" />
        </mxCell>
        <mxCell id="qjOrXBp8RQyQjDcFo7r0-25" value="DownKey" style="shape=hexagon;perimeter=hexagonPerimeter2;whiteSpace=wrap;html=1;fixedSize=1;fillColor=#f8cecc;strokeColor=#b85450;" vertex="1" parent="WIyWlLk6GJQsqaUBKTNV-1">
          <mxGeometry x="80" y="410" width="80" height="35" as="geometry" />
        </mxCell>
        <mxCell id="qjOrXBp8RQyQjDcFo7r0-27" style="edgeStyle=orthogonalEdgeStyle;rounded=0;orthogonalLoop=1;jettySize=auto;html=1;entryX=0;entryY=0.5;entryDx=0;entryDy=0;" edge="1" parent="WIyWlLk6GJQsqaUBKTNV-1" source="qjOrXBp8RQyQjDcFo7r0-26" target="WIyWlLk6GJQsqaUBKTNV-7">
          <mxGeometry relative="1" as="geometry" />
        </mxCell>
        <mxCell id="qjOrXBp8RQyQjDcFo7r0-26" value="AttackKey" style="shape=hexagon;perimeter=hexagonPerimeter2;whiteSpace=wrap;html=1;fixedSize=1;fillColor=#d5e8d4;strokeColor=#82b366;" vertex="1" parent="WIyWlLk6GJQsqaUBKTNV-1">
          <mxGeometry x="490" y="370" width="80" height="35" as="geometry" />
        </mxCell>
        <mxCell id="qjOrXBp8RQyQjDcFo7r0-29" style="edgeStyle=orthogonalEdgeStyle;rounded=0;orthogonalLoop=1;jettySize=auto;html=1;entryX=0.5;entryY=1;entryDx=0;entryDy=0;" edge="1" parent="WIyWlLk6GJQsqaUBKTNV-1" source="qjOrXBp8RQyQjDcFo7r0-28" target="qjOrXBp8RQyQjDcFo7r0-8">
          <mxGeometry relative="1" as="geometry" />
        </mxCell>
        <mxCell id="qjOrXBp8RQyQjDcFo7r0-28" value="JumpKey" style="shape=hexagon;perimeter=hexagonPerimeter2;whiteSpace=wrap;html=1;fixedSize=1;fillColor=#d5e8d4;strokeColor=#82b366;" vertex="1" parent="WIyWlLk6GJQsqaUBKTNV-1">
          <mxGeometry x="350" y="270" width="80" height="35" as="geometry" />
        </mxCell>
        <mxCell id="qjOrXBp8RQyQjDcFo7r0-36" style="edgeStyle=orthogonalEdgeStyle;rounded=0;orthogonalLoop=1;jettySize=auto;html=1;entryX=1;entryY=1;entryDx=0;entryDy=0;" edge="1" parent="WIyWlLk6GJQsqaUBKTNV-1" source="qjOrXBp8RQyQjDcFo7r0-34" target="WIyWlLk6GJQsqaUBKTNV-3">
          <mxGeometry relative="1" as="geometry" />
        </mxCell>
        <mxCell id="qjOrXBp8RQyQjDcFo7r0-34" value="AttackKey" style="shape=hexagon;perimeter=hexagonPerimeter2;whiteSpace=wrap;html=1;fixedSize=1;fillColor=#f8cecc;strokeColor=#b85450;" vertex="1" parent="WIyWlLk6GJQsqaUBKTNV-1">
          <mxGeometry x="670" y="470" width="80" height="35" as="geometry" />
        </mxCell>
        <mxCell id="qjOrXBp8RQyQjDcFo7r0-39" value="Yes" style="edgeStyle=orthogonalEdgeStyle;rounded=0;orthogonalLoop=1;jettySize=auto;html=1;entryX=1;entryY=0;entryDx=0;entryDy=0;" edge="1" parent="WIyWlLk6GJQsqaUBKTNV-1" source="qjOrXBp8RQyQjDcFo7r0-37" target="WIyWlLk6GJQsqaUBKTNV-3">
          <mxGeometry relative="1" as="geometry">
            <Array as="points">
              <mxPoint x="480" y="90" />
              <mxPoint x="480" y="365" />
            </Array>
          </mxGeometry>
        </mxCell>
        <mxCell id="qjOrXBp8RQyQjDcFo7r0-44" value="No" style="edgeStyle=orthogonalEdgeStyle;rounded=0;orthogonalLoop=1;jettySize=auto;html=1;" edge="1" parent="WIyWlLk6GJQsqaUBKTNV-1" source="qjOrXBp8RQyQjDcFo7r0-37" target="qjOrXBp8RQyQjDcFo7r0-43">
          <mxGeometry relative="1" as="geometry" />
        </mxCell>
        <mxCell id="qjOrXBp8RQyQjDcFo7r0-37" value="There is a floor below ?" style="rhombus;whiteSpace=wrap;html=1;" vertex="1" parent="WIyWlLk6GJQsqaUBKTNV-1">
          <mxGeometry x="337.5" y="50" width="105" height="80" as="geometry" />
        </mxCell>
        <mxCell id="qjOrXBp8RQyQjDcFo7r0-45" style="edgeStyle=orthogonalEdgeStyle;rounded=0;orthogonalLoop=1;jettySize=auto;html=1;entryX=0;entryY=0.5;entryDx=0;entryDy=0;" edge="1" parent="WIyWlLk6GJQsqaUBKTNV-1" source="qjOrXBp8RQyQjDcFo7r0-43" target="qjOrXBp8RQyQjDcFo7r0-8">
          <mxGeometry relative="1" as="geometry">
            <Array as="points">
              <mxPoint x="260" y="190" />
            </Array>
          </mxGeometry>
        </mxCell>
        <mxCell id="qjOrXBp8RQyQjDcFo7r0-43" value="ApplyGravity" style="rounded=1;whiteSpace=wrap;html=1;fontSize=12;glass=0;strokeWidth=1;shadow=0;" vertex="1" parent="WIyWlLk6GJQsqaUBKTNV-1">
          <mxGeometry x="180" y="70" width="120" height="40" as="geometry" />
        </mxCell>
        <mxCell id="qjOrXBp8RQyQjDcFo7r0-49" style="edgeStyle=orthogonalEdgeStyle;rounded=0;orthogonalLoop=1;jettySize=auto;html=1;entryX=0;entryY=0.5;entryDx=0;entryDy=0;" edge="1" parent="WIyWlLk6GJQsqaUBKTNV-1" source="qjOrXBp8RQyQjDcFo7r0-46" target="qjOrXBp8RQyQjDcFo7r0-18">
          <mxGeometry relative="1" as="geometry" />
        </mxCell>
        <mxCell id="qjOrXBp8RQyQjDcFo7r0-46" value="LeftKey" style="shape=hexagon;perimeter=hexagonPerimeter2;whiteSpace=wrap;html=1;fixedSize=1;fillColor=#d5e8d4;strokeColor=#82b366;" vertex="1" parent="WIyWlLk6GJQsqaUBKTNV-1">
          <mxGeometry x="-130" y="100" width="80" height="35" as="geometry" />
        </mxCell>
        <mxCell id="qjOrXBp8RQyQjDcFo7r0-48" style="edgeStyle=orthogonalEdgeStyle;rounded=0;orthogonalLoop=1;jettySize=auto;html=1;entryX=0;entryY=0.5;entryDx=0;entryDy=0;" edge="1" parent="WIyWlLk6GJQsqaUBKTNV-1" source="qjOrXBp8RQyQjDcFo7r0-47" target="qjOrXBp8RQyQjDcFo7r0-18">
          <mxGeometry relative="1" as="geometry" />
        </mxCell>
        <mxCell id="qjOrXBp8RQyQjDcFo7r0-47" value="RightKey" style="shape=hexagon;perimeter=hexagonPerimeter2;whiteSpace=wrap;html=1;fixedSize=1;fillColor=#d5e8d4;strokeColor=#82b366;" vertex="1" parent="WIyWlLk6GJQsqaUBKTNV-1">
          <mxGeometry x="-240" y="100" width="80" height="35" as="geometry" />
        </mxCell>
        <mxCell id="qjOrXBp8RQyQjDcFo7r0-52" value="Yes" style="edgeStyle=orthogonalEdgeStyle;rounded=0;orthogonalLoop=1;jettySize=auto;html=1;entryX=0;entryY=0.5;entryDx=0;entryDy=0;" edge="1" parent="WIyWlLk6GJQsqaUBKTNV-1" source="qjOrXBp8RQyQjDcFo7r0-50" target="qjOrXBp8RQyQjDcFo7r0-9">
          <mxGeometry relative="1" as="geometry">
            <mxPoint x="1110" y="387.5" as="targetPoint" />
          </mxGeometry>
        </mxCell>
        <mxCell id="qjOrXBp8RQyQjDcFo7r0-53" value="No" style="edgeStyle=orthogonalEdgeStyle;rounded=0;orthogonalLoop=1;jettySize=auto;html=1;entryX=0.5;entryY=0;entryDx=0;entryDy=0;exitX=0.5;exitY=0;exitDx=0;exitDy=0;" edge="1" parent="WIyWlLk6GJQsqaUBKTNV-1" source="qjOrXBp8RQyQjDcFo7r0-50" target="WIyWlLk6GJQsqaUBKTNV-7">
          <mxGeometry relative="1" as="geometry">
            <Array as="points">
              <mxPoint x="914" y="309" />
              <mxPoint x="710" y="309" />
            </Array>
          </mxGeometry>
        </mxCell>
        <mxCell id="qjOrXBp8RQyQjDcFo7r0-50" value="Does an ennemy as been inhaled ?" style="rhombus;whiteSpace=wrap;html=1;" vertex="1" parent="WIyWlLk6GJQsqaUBKTNV-1">
          <mxGeometry x="827" y="328.75" width="173" height="117.5" as="geometry" />
        </mxCell>
        <mxCell id="qjOrXBp8RQyQjDcFo7r0-57" style="edgeStyle=orthogonalEdgeStyle;rounded=0;orthogonalLoop=1;jettySize=auto;html=1;" edge="1" parent="WIyWlLk6GJQsqaUBKTNV-1" source="qjOrXBp8RQyQjDcFo7r0-54" target="qjOrXBp8RQyQjDcFo7r0-56">
          <mxGeometry relative="1" as="geometry" />
        </mxCell>
        <mxCell id="qjOrXBp8RQyQjDcFo7r0-54" value="AttackKey" style="shape=hexagon;perimeter=hexagonPerimeter2;whiteSpace=wrap;html=1;fixedSize=1;fillColor=#d5e8d4;strokeColor=#82b366;" vertex="1" parent="WIyWlLk6GJQsqaUBKTNV-1">
          <mxGeometry x="1141" y="490" width="80" height="35" as="geometry" />
        </mxCell>
        <mxCell id="qjOrXBp8RQyQjDcFo7r0-58" style="edgeStyle=orthogonalEdgeStyle;rounded=0;orthogonalLoop=1;jettySize=auto;html=1;entryX=0.5;entryY=1;entryDx=0;entryDy=0;" edge="1" parent="WIyWlLk6GJQsqaUBKTNV-1" source="qjOrXBp8RQyQjDcFo7r0-56" target="WIyWlLk6GJQsqaUBKTNV-3">
          <mxGeometry relative="1" as="geometry" />
        </mxCell>
        <mxCell id="qjOrXBp8RQyQjDcFo7r0-56" value="ExpulseStar" style="rounded=1;whiteSpace=wrap;html=1;fontSize=12;glass=0;strokeWidth=1;shadow=0;" vertex="1" parent="WIyWlLk6GJQsqaUBKTNV-1">
          <mxGeometry x="850" y="487.5" width="120" height="40" as="geometry" />
        </mxCell>
        <mxCell id="qjOrXBp8RQyQjDcFo7r0-61" value="Yes" style="edgeStyle=orthogonalEdgeStyle;rounded=0;orthogonalLoop=1;jettySize=auto;html=1;entryX=0.5;entryY=1;entryDx=0;entryDy=0;" edge="1" parent="WIyWlLk6GJQsqaUBKTNV-1" source="qjOrXBp8RQyQjDcFo7r0-59" target="qjOrXBp8RQyQjDcFo7r0-62">
          <mxGeometry relative="1" as="geometry">
            <mxPoint x="1505" y="188.12" as="targetPoint" />
          </mxGeometry>
        </mxCell>
        <mxCell id="qjOrXBp8RQyQjDcFo7r0-66" style="edgeStyle=orthogonalEdgeStyle;rounded=0;orthogonalLoop=1;jettySize=auto;html=1;entryX=0.5;entryY=1;entryDx=0;entryDy=0;" edge="1" parent="WIyWlLk6GJQsqaUBKTNV-1" source="qjOrXBp8RQyQjDcFo7r0-59" target="WIyWlLk6GJQsqaUBKTNV-3">
          <mxGeometry relative="1" as="geometry">
            <Array as="points">
              <mxPoint x="1505" y="530" />
              <mxPoint x="390" y="530" />
            </Array>
          </mxGeometry>
        </mxCell>
        <mxCell id="qjOrXBp8RQyQjDcFo7r0-67" value="No" style="edgeLabel;html=1;align=center;verticalAlign=middle;resizable=0;points=[];" vertex="1" connectable="0" parent="qjOrXBp8RQyQjDcFo7r0-66">
          <mxGeometry x="-0.2094" relative="1" as="geometry">
            <mxPoint as="offset" />
          </mxGeometry>
        </mxCell>
        <mxCell id="qjOrXBp8RQyQjDcFo7r0-59" value="Dos the ennemy has an ability ?" style="rhombus;whiteSpace=wrap;html=1;" vertex="1" parent="WIyWlLk6GJQsqaUBKTNV-1">
          <mxGeometry x="1440" y="325" width="130" height="121.25" as="geometry" />
        </mxCell>
        <mxCell id="qjOrXBp8RQyQjDcFo7r0-62" value="AbilityKirby" style="ellipse;whiteSpace=wrap;html=1;" vertex="1" parent="WIyWlLk6GJQsqaUBKTNV-1">
          <mxGeometry x="1445" y="148.12" width="120" height="80" as="geometry" />
        </mxCell>
        <mxCell id="qjOrXBp8RQyQjDcFo7r0-65" style="edgeStyle=orthogonalEdgeStyle;rounded=0;orthogonalLoop=1;jettySize=auto;html=1;entryX=0;entryY=0.5;entryDx=0;entryDy=0;" edge="1" parent="WIyWlLk6GJQsqaUBKTNV-1" source="qjOrXBp8RQyQjDcFo7r0-63" target="qjOrXBp8RQyQjDcFo7r0-59">
          <mxGeometry relative="1" as="geometry" />
        </mxCell>
        <mxCell id="qjOrXBp8RQyQjDcFo7r0-63" value="DownKey" style="shape=hexagon;perimeter=hexagonPerimeter2;whiteSpace=wrap;html=1;fixedSize=1;fillColor=#d5e8d4;strokeColor=#82b366;" vertex="1" parent="WIyWlLk6GJQsqaUBKTNV-1">
          <mxGeometry x="1300" y="370" width="80" height="35" as="geometry" />
        </mxCell>
        <mxCell id="qjOrXBp8RQyQjDcFo7r0-70" style="edgeStyle=orthogonalEdgeStyle;rounded=0;orthogonalLoop=1;jettySize=auto;html=1;" edge="1" parent="WIyWlLk6GJQsqaUBKTNV-1" source="qjOrXBp8RQyQjDcFo7r0-69">
          <mxGeometry relative="1" as="geometry">
            <mxPoint x="750" y="190" as="targetPoint" />
          </mxGeometry>
        </mxCell>
        <mxCell id="qjOrXBp8RQyQjDcFo7r0-69" value="JumpKey" style="shape=hexagon;perimeter=hexagonPerimeter2;whiteSpace=wrap;html=1;fixedSize=1;fillColor=#d5e8d4;strokeColor=#82b366;" vertex="1" parent="WIyWlLk6GJQsqaUBKTNV-1">
          <mxGeometry x="570" y="172.5" width="80" height="35" as="geometry" />
        </mxCell>
        <mxCell id="qjOrXBp8RQyQjDcFo7r0-73" style="edgeStyle=orthogonalEdgeStyle;rounded=0;orthogonalLoop=1;jettySize=auto;html=1;entryX=0;entryY=0.5;entryDx=0;entryDy=0;" edge="1" parent="WIyWlLk6GJQsqaUBKTNV-1" source="qjOrXBp8RQyQjDcFo7r0-71" target="qjOrXBp8RQyQjDcFo7r0-72">
          <mxGeometry relative="1" as="geometry" />
        </mxCell>
        <mxCell id="qjOrXBp8RQyQjDcFo7r0-79" style="edgeStyle=orthogonalEdgeStyle;rounded=0;orthogonalLoop=1;jettySize=auto;html=1;entryX=1;entryY=0.5;entryDx=0;entryDy=0;" edge="1" parent="WIyWlLk6GJQsqaUBKTNV-1" source="qjOrXBp8RQyQjDcFo7r0-71" target="qjOrXBp8RQyQjDcFo7r0-78">
          <mxGeometry relative="1" as="geometry" />
        </mxCell>
        <mxCell id="qjOrXBp8RQyQjDcFo7r0-71" value="Float" style="rounded=1;whiteSpace=wrap;html=1;fontSize=12;glass=0;strokeWidth=1;shadow=0;fillColor=#dae8fc;strokeColor=#6c8ebf;" vertex="1" parent="WIyWlLk6GJQsqaUBKTNV-1">
          <mxGeometry x="750" y="172.5" width="120" height="40" as="geometry" />
        </mxCell>
        <mxCell id="qjOrXBp8RQyQjDcFo7r0-75" style="edgeStyle=orthogonalEdgeStyle;rounded=0;orthogonalLoop=1;jettySize=auto;html=1;entryX=1;entryY=0.5;entryDx=0;entryDy=0;" edge="1" parent="WIyWlLk6GJQsqaUBKTNV-1" source="qjOrXBp8RQyQjDcFo7r0-72" target="qjOrXBp8RQyQjDcFo7r0-74">
          <mxGeometry relative="1" as="geometry" />
        </mxCell>
        <mxCell id="qjOrXBp8RQyQjDcFo7r0-72" value="JumpKey" style="shape=hexagon;perimeter=hexagonPerimeter2;whiteSpace=wrap;html=1;fixedSize=1;fillColor=#d5e8d4;strokeColor=#82b366;" vertex="1" parent="WIyWlLk6GJQsqaUBKTNV-1">
          <mxGeometry x="960" y="175" width="80" height="35" as="geometry" />
        </mxCell>
        <mxCell id="qjOrXBp8RQyQjDcFo7r0-76" style="edgeStyle=orthogonalEdgeStyle;rounded=0;orthogonalLoop=1;jettySize=auto;html=1;" edge="1" parent="WIyWlLk6GJQsqaUBKTNV-1" source="qjOrXBp8RQyQjDcFo7r0-74" target="qjOrXBp8RQyQjDcFo7r0-71">
          <mxGeometry relative="1" as="geometry" />
        </mxCell>
        <mxCell id="qjOrXBp8RQyQjDcFo7r0-74" value="FloatJump" style="rounded=1;whiteSpace=wrap;html=1;fontSize=12;glass=0;strokeWidth=1;shadow=0;" vertex="1" parent="WIyWlLk6GJQsqaUBKTNV-1">
          <mxGeometry x="853.5" y="80" width="120" height="40" as="geometry" />
        </mxCell>
        <mxCell id="qjOrXBp8RQyQjDcFo7r0-80" style="edgeStyle=orthogonalEdgeStyle;rounded=0;orthogonalLoop=1;jettySize=auto;html=1;" edge="1" parent="WIyWlLk6GJQsqaUBKTNV-1" source="qjOrXBp8RQyQjDcFo7r0-78" target="qjOrXBp8RQyQjDcFo7r0-81">
          <mxGeometry relative="1" as="geometry">
            <mxPoint x="640" y="252.5" as="targetPoint" />
          </mxGeometry>
        </mxCell>
        <mxCell id="qjOrXBp8RQyQjDcFo7r0-78" value="AttackKey" style="shape=hexagon;perimeter=hexagonPerimeter2;whiteSpace=wrap;html=1;fixedSize=1;fillColor=#d5e8d4;strokeColor=#82b366;" vertex="1" parent="WIyWlLk6GJQsqaUBKTNV-1">
          <mxGeometry x="700" y="235" width="80" height="35" as="geometry" />
        </mxCell>
        <mxCell id="qjOrXBp8RQyQjDcFo7r0-82" style="edgeStyle=orthogonalEdgeStyle;rounded=0;orthogonalLoop=1;jettySize=auto;html=1;" edge="1" parent="WIyWlLk6GJQsqaUBKTNV-1" source="qjOrXBp8RQyQjDcFo7r0-81">
          <mxGeometry relative="1" as="geometry">
            <mxPoint x="390" y="220" as="targetPoint" />
          </mxGeometry>
        </mxCell>
        <mxCell id="qjOrXBp8RQyQjDcFo7r0-81" value="ExpulseAir" style="rounded=1;whiteSpace=wrap;html=1;fontSize=12;glass=0;strokeWidth=1;shadow=0;" vertex="1" parent="WIyWlLk6GJQsqaUBKTNV-1">
          <mxGeometry x="520" y="232.5" width="120" height="40" as="geometry" />
        </mxCell>
      </root>
    </mxGraphModel>
  </diagram>
</mxfile>
